<?xml version="1.0" encoding="UTF-8" standalone="no"?>
<!-- Created with Inkscape (http://www.inkscape.org/) -->

<svg
   width="148mm"
   height="210mm"
   viewBox="0 0 559.37006 793.70081"
   version="1.1"
   id="svg1"
   inkscape:version="1.4.3 (0d15f75042, 2025-12-25)"
   sodipodi:docname="bobeloj.svg"
   xmlns:inkscape="http://www.inkscape.org/namespaces/inkscape"
   xmlns:sodipodi="http://sodipodi.sourceforge.net/DTD/sodipodi-0.dtd"
   xmlns="http://www.w3.org/2000/svg"
   xmlns:svg="http://www.w3.org/2000/svg">
  <sodipodi:namedview
     id="namedview1"
     pagecolor="#ffffff"
     bordercolor="#000000"
     borderopacity="0.25"
     inkscape:showpageshadow="2"
     inkscape:pageopacity="0.0"
     inkscape:pagecheckerboard="0"
     inkscape:deskcolor="#d1d1d1"
     inkscape:document-units="mm"
     inkscape:zoom="1.4617199"
     inkscape:cx="308.54064"
     inkscape:cy="390.63572"
     inkscape:window-width="2560"
     inkscape:window-height="1403"
     inkscape:window-x="0"
     inkscape:window-y="0"
     inkscape:window-maximized="1"
     inkscape:current-layer="layer1" />
  <defs
     id="defs1" />
  <g
     inkscape:label="Layer 1"
     inkscape:groupmode="layer"
     id="layer1">
    <path
       style="fill:#00ad01;fill-opacity:1;stroke:none;stroke-width:0.961721;stroke-opacity:1"
       d="m 337.3743,461.7017 c -71.27978,-1.5522 -148.47097,23.07329 -168.21509,105.68787 -11.79804,42.39991 30.31519,94.72785 60.59795,108.39886 12.25161,4.79908 49.04192,17.79319 91.21463,13.63262 42.59941,34.92863 85.44608,60.12379 121.70915,64.49046 -24.21408,-27.23032 -37.70897,-42.21351 -51.05828,-73.80325 58.81408,-9.64145 78.93685,-18.06477 97.22843,-35.11155 20.74113,-19.32963 48.28871,-91.28154 -10.56043,-140.03384 -24.00929,-19.64579 -49.71117,-27.9421 -73.95352,-34.16105 -20.10008,-5.15635 -43.20291,-8.58274 -66.96284,-9.10012 z"
       id="path4" />
    <path
       id="path1"
       style="fill:#00ad01;fill-opacity:1;stroke:none;stroke-width:0.960995;stroke-opacity:1"
       d="m 177.36234,168.08643 c -25.99661,-0.57875 -48.03645,3.8888 -61.84655,14.56721 -74.252296,64.76871 -65.820854,159.35741 -47.887968,173.56367 6.91823,12.91413 59.439028,26.87123 117.102898,36.69018 -13.08823,32.17129 -26.31923,47.43032 -50.05975,75.16195 35.55388,-4.44706 77.56262,-30.10605 119.32895,-65.67772 41.34794,4.23716 76.49279,4.99665 88.50481,0.10923 29.69053,-13.9227 77.0026,-83.07262 60.33882,-124.3873 C 368.95789,216.97678 255.35219,169.82266 177.36234,168.08643 Z" />
    <path
       id="path1-3"
       style="fill:#000000;fill-opacity:1;stroke:#000000;stroke-opacity:1"
       d="m 165.87302,151.55639 c -27.14316,-0.60021 -50.15503,4.03301 -64.57422,15.10743 -77.527089,67.17054 -68.72379,165.26692 -49.999998,179.99999 7.22335,13.39304 62.060508,27.86772 122.267578,38.05079 -13.66548,33.36432 -27.48001,49.1892 -52.26758,77.94922 37.12194,-4.61197 80.98342,-31.2225 124.5918,-68.11329 43.17154,4.39429 79.86641,5.18195 92.4082,0.11329 31,-14.439 80.39871,-86.15325 63,-129.00001 C 365.91864,202.25976 247.30251,153.35701 165.87302,151.55639 Z m 11.29687,11.96094 c 75.89081,1.66222 186.43844,46.80517 219.41211,105.33594 16.21528,39.55353 -29.82339,105.75673 -58.71484,119.08594 -10.17903,4.07475 -52.75341,5.57357 -84.58648,0.47459 -2.8637,-0.45871 10.71384,-9.53623 12.69646,-11.87029 4.03887,-4.75481 -2.82869,-3.13431 -8.0759,1.37041 -40.64223,34.05534 -83.91466,65.46267 -118.16957,73.82491 23.10156,-26.54949 37.68724,-61.68088 50.42322,-92.4808 -1.46854,-0.24602 -3.13993,-3.67509 -5.08149,-0.26724 -3.45509,6.06439 -4.78765,20.34755 -9.80042,19.73495 C 123.83068,372.43912 64.732252,350.83698 58.758502,339.86597 41.308277,326.2653 44.390397,238.10216 116.64424,176.09439 c 13.43843,-10.22322 35.22871,-13.13114 60.52565,-12.57706 z"
       sodipodi:nodetypes="scccccccssccsscccssccs" />
    <path
       id="path1-3-0"
       style="fill:#000000;fill-opacity:1;stroke:#000000;stroke-opacity:1"
       d="m 397.36568,463.07484 c 24.81652,6.56831 51.12756,15.33028 75.7055,36.07969 60.24296,51.49103 32.0436,127.48599 10.81123,147.90148 -18.72481,18.0044 -39.32427,26.90022 -99.53134,37.08329 13.66548,33.36432 27.48001,49.1892 52.26758,77.94922 -37.12194,-4.61197 -80.98342,-31.2225 -124.5918,-68.11329 -43.17154,4.39429 -80.83391,-9.33055 -93.3757,-14.39921 -31,-14.439 -74.10996,-69.70575 -62.0325,-114.48751 26.94902,-116.34072 158.44238,-123.79767 240.74703,-102.01367 z m -20.48812,2.28594 c -94.73701,-24.43177 -207.01699,18.96044 -218.92836,114.52719 -1.21903,37.61853 37.56339,83.50423 66.45484,96.83344 10.17903,4.07475 48.39966,16.21607 80.23273,11.11709 2.8637,-0.45871 -10.71384,-9.53623 -12.69646,-11.87029 -4.03887,-4.75481 2.82869,-3.13431 8.0759,1.37041 40.64223,34.05534 83.91466,65.46267 118.16957,73.82491 -23.10156,-26.54949 -38.98825,-61.17454 -50.42322,-92.4808 0.46483,-3.47082 3.341,-3.78203 5.08149,-0.26724 3.15275,6.36673 6.51437,16.04317 9.2562,20.2187 34.29268,-3.39014 77.68128,-17.32478 96.74121,-35.95727 21.45889,-21.47218 33.29802,-98.60576 -14.83201,-141.03534 -39.15615,-27.99998 -64.18032,-30.36181 -87.13189,-36.2808 z"
       sodipodi:nodetypes="scscccccssccsscccscccs" />
  </g>
</svg>
